{"title":"Ghost.Hunters.S07E13.Dark.Shadows.HDTV.XviD-tNe.avi","uid":6659541,"size":365844480,"categoryP":"video","categoryS":"tv_shows","magnet":"?xt=urn:btih:5d0c7121ad5f9b9a798ef6e462ac18601710076a&amp;dn=Ghost.Hunters.S07E13.Dark.Shadows.HDTV.XviD-tNe.avi&amp;tr=udp%3A%2F%2Ftracker.openbittorrent.com%3A80&amp;tr=udp%3A%2F%2Fopen.demonii.com%3A1337&amp;tr=udp%3A%2F%2Ftracker.coppersurfer.tk%3A6969&amp;tr=udp%3A%2F%2Fexodus.desync.com%3A6969","seeders":1,"leechers":0,"uploader":"trialNerror","files":1,"time":1315464643,"description":"Ghost Hunters - Dark Shadows\n \nTAPS goes to Newport, RI to investigate Seaview Terrace, used as the exterior setting for the Gothic soap-opera Dark Shadows, where some say actual ghosts rattle the door handles and walk loudly across the floors.\n \nFormat                           : AVI\nFormat/Info                      : Audio Video Interleave\nFile size                        : 349 MiB\nDuration                         : 42mn 59s\nOverall bit rate                 : 1 135 Kbps\nWriting application              : VirtualDubMod 1.5.10.2 (build 2542/release)\nWriting library                  : VirtualDubMod build 2542/release\n \nVideo\nID                               : 0\nFormat                           : MPEG-4 Visual\nFormat profile                   : Advanced Simple@L5\nFormat settings, BVOP            : 2\nFormat settings, QPel            : No\nFormat settings, GMC             : No warppoints\nFormat settings, Matrix          : Default (H.263)\nCodec ID                         : XVID\nCodec ID/Hint                    : XviD\nDuration                         : 42mn 59s\nBit rate                         : 994 Kbps\nWidth                            : 624 pixels\nHeight                           : 352 pixels\nDisplay aspect ratio             : 16:9\nFrame rate                       : 29.970 fps\nColor space                      : YUV\nChroma subsampling               : 4:2:0\nBit depth                        : 8 bits\nScan type                        : Progressive\nCompression mode                 : Lossy\nBits/(Pixel*Frame)               : 0.151\nStream size                      : 306 MiB (88%)\nWriting library                  : XviD 64\n \nAudio\nID                               : 1\nFormat                           : MPEG Audio\nFormat version                   : Version 1\nFormat profile                   : Layer 3\nMode                             : Joint stereo\nMode extension                   : MS Stereo\nCodec ID                         : 55\nCodec ID/Hint                    : MP3\nDuration                         : 42mn 59s\nBit rate mode                    : Variable\nBit rate                         : 128 Kbps\nChannel(s)                       : 2 channels\nSampling rate                    : 48.0 KHz\nCompression mode                 : Lossy\nStream size                      : 38.8 MiB (11%)\nAlignment                        : Aligned on interleaves\nInterleave, duration             : 24 ms (0.72 video frame)\nInterleave, preload duration     : 556 ms","torrent":{"xt":"urn:btih:5d0c7121ad5f9b9a798ef6e462ac18601710076a","amp;dn":"Ghost.Hunters.S07E13.Dark.Shadows.HDTV.XviD-tNe.avi","amp;tr":["udp%3A%2F%2Ftracker.openbittorrent.com%3A80","udp%3A%2F%2Fopen.demonii.com%3A1337","udp%3A%2F%2Ftracker.coppersurfer.tk%3A6969","udp%3A%2F%2Fexodus.desync.com%3A6969"],"infoHash":"5d0c7121ad5f9b9a798ef6e462ac18601710076a","infoHashBuffer":{"type":"Buffer","data":[93,12,113,33,173,95,155,154,121,142,246,228,98,172,24,96,23,16,7,106]},"announce":[],"urlList":[]}}